<svg id="visual" viewBox="0 0 960 540" width="960" height="540" xmlns="http://www.w3.org/2000/svg" xmlns:xlink="http://www.w3.org/1999/xlink" version="1.1"><g stroke-width="1" stroke-linejoin="bevel"><path d="M502.3 290L409.7 335L495.3 340Z" fill="#b6c6aa" stroke="#b6c6aa"></path><path d="M502.3 290L424.7 265L409.7 335Z" fill="#99bca1" stroke="#99bca1"></path><path d="M424.7 265L359 284L409.7 335Z" fill="#d6d4be" stroke="#d6d4be"></path><path d="M545.3 180L411.7 190L424.7 265Z" fill="#a3bfa4" stroke="#a3bfa4"></path><path d="M424.7 265L411.7 190L359 284Z" fill="#99bca1" stroke="#99bca1"></path><path d="M296 438L433.7 455L409.7 335Z" fill="#cfd1b8" stroke="#cfd1b8"></path><path d="M409.7 335L433.7 455L495.3 340Z" fill="#bfc9ae" stroke="#bfc9ae"></path><path d="M646 348L603 297L495.3 340Z" fill="#a3bfa4" stroke="#a3bfa4"></path><path d="M495.3 340L603 297L502.3 290Z" fill="#a3bfa4" stroke="#a3bfa4"></path><path d="M502.3 290L545.3 180L424.7 265Z" fill="#84b59f" stroke="#84b59f"></path><path d="M603 297L545.3 180L502.3 290Z" fill="#99bca1" stroke="#99bca1"></path><path d="M185.3 329L282 388L359 284Z" fill="#ddd8c4" stroke="#ddd8c4"></path><path d="M359 284L282 388L409.7 335Z" fill="#84b59f" stroke="#84b59f"></path><path d="M433.7 455L527.3 487L495.3 340Z" fill="#d6d4be" stroke="#d6d4be"></path><path d="M652 439L646 348L495.3 340Z" fill="#b6c6aa" stroke="#b6c6aa"></path><path d="M603 297L629 155L545.3 180Z" fill="#b6c6aa" stroke="#b6c6aa"></path><path d="M302 113L301 186L411.7 190Z" fill="#d6d4be" stroke="#d6d4be"></path><path d="M411.7 190L301 186L359 284Z" fill="#d6d4be" stroke="#d6d4be"></path><path d="M282 388L296 438L409.7 335Z" fill="#84b59f" stroke="#84b59f"></path><path d="M433.7 455L414.7 540L527.3 487Z" fill="#ddd8c4" stroke="#ddd8c4"></path><path d="M545.3 180L441.7 103L411.7 190Z" fill="#ddd8c4" stroke="#ddd8c4"></path><path d="M185.3 329L252.3 415L282 388Z" fill="#99bca1" stroke="#99bca1"></path><path d="M282 388L252.3 415L296 438Z" fill="#8fb8a0" stroke="#8fb8a0"></path><path d="M713.7 176L629 155L603 297Z" fill="#ddd8c4" stroke="#ddd8c4"></path><path d="M545.3 180L549.3 84L441.7 103Z" fill="#bfc9ae" stroke="#bfc9ae"></path><path d="M359 540L433.7 455L296 438Z" fill="#99bca1" stroke="#99bca1"></path><path d="M359 540L414.7 540L433.7 455Z" fill="#8fb8a0" stroke="#8fb8a0"></path><path d="M615 540L652 439L527.3 487Z" fill="#99bca1" stroke="#99bca1"></path><path d="M527.3 487L652 439L495.3 340Z" fill="#cfd1b8" stroke="#cfd1b8"></path><path d="M629 155L549.3 84L545.3 180Z" fill="#adc3a7" stroke="#adc3a7"></path><path d="M441.7 103L302 113L411.7 190Z" fill="#d6d4be" stroke="#d6d4be"></path><path d="M175.3 276L185.3 329L359 284Z" fill="#c7cdb3" stroke="#c7cdb3"></path><path d="M230.3 100L302 113L321 0Z" fill="#99bca1" stroke="#99bca1"></path><path d="M227.3 540L359 540L296 438Z" fill="#99bca1" stroke="#99bca1"></path><path d="M414.7 540L556.3 540L527.3 487Z" fill="#ddd8c4" stroke="#ddd8c4"></path><path d="M175.3 276L359 284L301 186Z" fill="#cfd1b8" stroke="#cfd1b8"></path><path d="M302 113L215.3 167L301 186Z" fill="#cfd1b8" stroke="#cfd1b8"></path><path d="M215.3 167L175.3 276L301 186Z" fill="#d6d4be" stroke="#d6d4be"></path><path d="M556.3 540L615 540L527.3 487Z" fill="#84b59f" stroke="#84b59f"></path><path d="M713.7 176L669 114L629 155Z" fill="#b6c6aa" stroke="#b6c6aa"></path><path d="M629 155L669 114L549.3 84Z" fill="#ddd8c4" stroke="#ddd8c4"></path><path d="M713.7 176L603 297L763.7 299Z" fill="#adc3a7" stroke="#adc3a7"></path><path d="M763.7 299L603 297L646 348Z" fill="#cfd1b8" stroke="#cfd1b8"></path><path d="M774.7 417L755.7 359L652 439Z" fill="#99bca1" stroke="#99bca1"></path><path d="M652 439L755.7 359L646 348Z" fill="#d6d4be" stroke="#d6d4be"></path><path d="M413.7 0L302 113L441.7 103Z" fill="#c7cdb3" stroke="#c7cdb3"></path><path d="M302 113L230.3 100L215.3 167Z" fill="#b6c6aa" stroke="#b6c6aa"></path><path d="M107.7 288L139.7 323L175.3 276Z" fill="#a3bfa4" stroke="#a3bfa4"></path><path d="M755.7 359L763.7 299L646 348Z" fill="#c7cdb3" stroke="#c7cdb3"></path><path d="M530.3 0L413.7 0L441.7 103Z" fill="#84b59f" stroke="#84b59f"></path><path d="M530.3 0L441.7 103L549.3 84Z" fill="#8fb8a0" stroke="#8fb8a0"></path><path d="M175.3 276L139.7 323L185.3 329Z" fill="#8fb8a0" stroke="#8fb8a0"></path><path d="M185.3 329L90.7 449L252.3 415Z" fill="#a3bfa4" stroke="#a3bfa4"></path><path d="M252.3 415L227.3 540L296 438Z" fill="#adc3a7" stroke="#adc3a7"></path><path d="M107.7 288L175.3 276L111.7 148Z" fill="#84b59f" stroke="#84b59f"></path><path d="M663 0L530.3 0L549.3 84Z" fill="#84b59f" stroke="#84b59f"></path><path d="M90.7 449L227.3 540L252.3 415Z" fill="#d6d4be" stroke="#d6d4be"></path><path d="M413.7 0L321 0L302 113Z" fill="#8fb8a0" stroke="#8fb8a0"></path><path d="M714.7 540L774.7 417L652 439Z" fill="#99bca1" stroke="#99bca1"></path><path d="M755.7 359L877.3 370L763.7 299Z" fill="#b6c6aa" stroke="#b6c6aa"></path><path d="M111.7 148L175.3 276L215.3 167Z" fill="#a3bfa4" stroke="#a3bfa4"></path><path d="M139.7 323L90.7 449L185.3 329Z" fill="#cfd1b8" stroke="#cfd1b8"></path><path d="M615 540L714.7 540L652 439Z" fill="#84b59f" stroke="#84b59f"></path><path d="M713.7 176L720.7 59L669 114Z" fill="#bfc9ae" stroke="#bfc9ae"></path><path d="M669 114L663 0L549.3 84Z" fill="#8fb8a0" stroke="#8fb8a0"></path><path d="M840.3 106L720.7 59L713.7 176Z" fill="#adc3a7" stroke="#adc3a7"></path><path d="M720.7 59L663 0L669 114Z" fill="#b6c6aa" stroke="#b6c6aa"></path><path d="M230.3 100L111.7 148L215.3 167Z" fill="#84b59f" stroke="#84b59f"></path><path d="M94.7 55L111.7 148L230.3 100Z" fill="#d6d4be" stroke="#d6d4be"></path><path d="M321 0L224.3 0L230.3 100Z" fill="#bfc9ae" stroke="#bfc9ae"></path><path d="M0 342L139.7 323L107.7 288Z" fill="#99bca1" stroke="#99bca1"></path><path d="M0 342L90.7 449L139.7 323Z" fill="#b6c6aa" stroke="#b6c6aa"></path><path d="M840.3 106L723.7 0L720.7 59Z" fill="#d6d4be" stroke="#d6d4be"></path><path d="M720.7 59L723.7 0L663 0Z" fill="#99bca1" stroke="#99bca1"></path><path d="M774.7 417L877.3 370L755.7 359Z" fill="#c7cdb3" stroke="#c7cdb3"></path><path d="M763.7 299L856.3 160L713.7 176Z" fill="#bfc9ae" stroke="#bfc9ae"></path><path d="M889.3 432L877.3 370L774.7 417Z" fill="#bfc9ae" stroke="#bfc9ae"></path><path d="M877.3 370L882.3 302L763.7 299Z" fill="#d6d4be" stroke="#d6d4be"></path><path d="M882.3 302L856.3 160L763.7 299Z" fill="#c7cdb3" stroke="#c7cdb3"></path><path d="M90.7 449L91.7 540L227.3 540Z" fill="#d6d4be" stroke="#d6d4be"></path><path d="M856.3 160L840.3 106L713.7 176Z" fill="#b6c6aa" stroke="#b6c6aa"></path><path d="M224.3 0L94.7 55L230.3 100Z" fill="#adc3a7" stroke="#adc3a7"></path><path d="M0 258L0 342L107.7 288Z" fill="#99bca1" stroke="#99bca1"></path><path d="M877.3 370L960 366L882.3 302Z" fill="#adc3a7" stroke="#adc3a7"></path><path d="M846.3 540L889.3 432L774.7 417Z" fill="#cfd1b8" stroke="#cfd1b8"></path><path d="M714.7 540L846.3 540L774.7 417Z" fill="#adc3a7" stroke="#adc3a7"></path><path d="M0 258L107.7 288L0 186Z" fill="#adc3a7" stroke="#adc3a7"></path><path d="M90.7 449L0 469L91.7 540Z" fill="#b6c6aa" stroke="#b6c6aa"></path><path d="M0 186L107.7 288L111.7 148Z" fill="#cfd1b8" stroke="#cfd1b8"></path><path d="M224.3 0L113.7 0L94.7 55Z" fill="#adc3a7" stroke="#adc3a7"></path><path d="M0 125L0 186L111.7 148Z" fill="#d6d4be" stroke="#d6d4be"></path><path d="M0 125L111.7 148L94.7 55Z" fill="#adc3a7" stroke="#adc3a7"></path><path d="M0 342L0 469L90.7 449Z" fill="#a3bfa4" stroke="#a3bfa4"></path><path d="M0 0L0 125L94.7 55Z" fill="#84b59f" stroke="#84b59f"></path><path d="M960 442L960 366L889.3 432Z" fill="#8fb8a0" stroke="#8fb8a0"></path><path d="M889.3 432L960 366L877.3 370Z" fill="#84b59f" stroke="#84b59f"></path><path d="M882.3 302L960 215L856.3 160Z" fill="#c7cdb3" stroke="#c7cdb3"></path><path d="M856.3 160L960 105L840.3 106Z" fill="#84b59f" stroke="#84b59f"></path><path d="M0 469L0 540L91.7 540Z" fill="#c7cdb3" stroke="#c7cdb3"></path><path d="M960 366L960 241L882.3 302Z" fill="#c7cdb3" stroke="#c7cdb3"></path><path d="M960 241L960 215L882.3 302Z" fill="#d6d4be" stroke="#d6d4be"></path><path d="M960 540L960 442L889.3 432Z" fill="#cfd1b8" stroke="#cfd1b8"></path><path d="M960 105L883.3 0L840.3 106Z" fill="#bfc9ae" stroke="#bfc9ae"></path><path d="M840.3 106L883.3 0L723.7 0Z" fill="#a3bfa4" stroke="#a3bfa4"></path><path d="M960 215L960 105L856.3 160Z" fill="#99bca1" stroke="#99bca1"></path><path d="M113.7 0L0 0L94.7 55Z" fill="#ddd8c4" stroke="#ddd8c4"></path><path d="M846.3 540L960 540L889.3 432Z" fill="#bfc9ae" stroke="#bfc9ae"></path><path d="M960 105L960 0L883.3 0Z" fill="#bfc9ae" stroke="#bfc9ae"></path></g></svg>