<svg id="visual" viewBox="0 0 960 540" width="960" height="540" xmlns="http://www.w3.org/2000/svg" xmlns:xlink="http://www.w3.org/1999/xlink" version="1.1"><g stroke-width="1" stroke-linejoin="bevel"><path d="M437.7 274L553.3 264L451.7 169Z" fill="#3c666a" stroke="#3c666a"></path><path d="M553.3 264L549.3 152L451.7 169Z" fill="#273f3a" stroke="#273f3a"></path><path d="M549.3 152L448.7 116L451.7 169Z" fill="#50808e" stroke="#50808e"></path><path d="M451.7 169L313 284L437.7 274Z" fill="#273f3a" stroke="#273f3a"></path><path d="M623 333L609 275L553.3 264Z" fill="#4a7985" stroke="#4a7985"></path><path d="M553.3 264L633 198L549.3 152Z" fill="#4a7985" stroke="#4a7985"></path><path d="M609 275L633 198L553.3 264Z" fill="#315251" stroke="#315251"></path><path d="M437.7 274L513.3 378L553.3 264Z" fill="#50808e" stroke="#50808e"></path><path d="M661 57L522.3 79L549.3 152Z" fill="#50808e" stroke="#50808e"></path><path d="M549.3 152L522.3 79L448.7 116Z" fill="#345959" stroke="#345959"></path><path d="M437.7 274L451.7 388L513.3 378Z" fill="#45737b" stroke="#45737b"></path><path d="M513.3 378L623 333L553.3 264Z" fill="#45737b" stroke="#45737b"></path><path d="M609 275L740.7 287L633 198Z" fill="#406c72" stroke="#406c72"></path><path d="M296 143L313 284L451.7 169Z" fill="#3c666a" stroke="#3c666a"></path><path d="M437.7 274L307 352L451.7 388Z" fill="#345959" stroke="#345959"></path><path d="M315 100L451.7 169L448.7 116Z" fill="#2d4c49" stroke="#2d4c49"></path><path d="M315 100L296 143L451.7 169Z" fill="#345959" stroke="#345959"></path><path d="M425.7 0L315 100L448.7 116Z" fill="#406c72" stroke="#406c72"></path><path d="M226.3 305L307 352L313 284Z" fill="#2d4c49" stroke="#2d4c49"></path><path d="M313 284L307 352L437.7 274Z" fill="#385f61" stroke="#385f61"></path><path d="M609 0L519.3 0L522.3 79Z" fill="#315251" stroke="#315251"></path><path d="M522.3 79L425.7 0L448.7 116Z" fill="#50808e" stroke="#50808e"></path><path d="M519.3 0L425.7 0L522.3 79Z" fill="#3c666a" stroke="#3c666a"></path><path d="M445.7 468L568.3 453L513.3 378Z" fill="#315251" stroke="#315251"></path><path d="M513.3 378L568.3 453L623 333Z" fill="#315251" stroke="#315251"></path><path d="M445.7 468L513.3 378L451.7 388Z" fill="#2a4541" stroke="#2a4541"></path><path d="M742.7 172L661 57L633 198Z" fill="#273f3a" stroke="#273f3a"></path><path d="M633 198L661 57L549.3 152Z" fill="#3c666a" stroke="#3c666a"></path><path d="M333 416L445.7 468L451.7 388Z" fill="#406c72" stroke="#406c72"></path><path d="M307 352L333 416L451.7 388Z" fill="#315251" stroke="#315251"></path><path d="M728.7 366L740.7 287L623 333Z" fill="#45737b" stroke="#45737b"></path><path d="M623 333L740.7 287L609 275Z" fill="#45737b" stroke="#45737b"></path><path d="M661 57L609 0L522.3 79Z" fill="#406c72" stroke="#406c72"></path><path d="M740.7 287L742.7 172L633 198Z" fill="#3c666a" stroke="#3c666a"></path><path d="M643 460L728.7 366L623 333Z" fill="#2d4c49" stroke="#2d4c49"></path><path d="M178.3 180L226.3 305L313 284Z" fill="#2d4c49" stroke="#2d4c49"></path><path d="M307 352L229.3 368L333 416Z" fill="#273f3a" stroke="#273f3a"></path><path d="M568.3 453L643 460L623 333Z" fill="#385f61" stroke="#385f61"></path><path d="M654 540L643 460L568.3 453Z" fill="#50808e" stroke="#50808e"></path><path d="M425.7 0L321 0L315 100Z" fill="#2a4541" stroke="#2a4541"></path><path d="M188.3 95L178.3 180L296 143Z" fill="#2a4541" stroke="#2a4541"></path><path d="M296 143L178.3 180L313 284Z" fill="#345959" stroke="#345959"></path><path d="M742.7 172L745.7 98L661 57Z" fill="#2d4c49" stroke="#2d4c49"></path><path d="M661 57L755.7 0L609 0Z" fill="#2d4c49" stroke="#2d4c49"></path><path d="M839.3 183L745.7 98L742.7 172Z" fill="#406c72" stroke="#406c72"></path><path d="M226.3 305L229.3 368L307 352Z" fill="#345959" stroke="#345959"></path><path d="M643 460L734.7 418L728.7 366Z" fill="#45737b" stroke="#45737b"></path><path d="M851.3 323L830.3 282L740.7 287Z" fill="#50808e" stroke="#50808e"></path><path d="M417.7 540L539.3 540L445.7 468Z" fill="#273f3a" stroke="#273f3a"></path><path d="M445.7 468L539.3 540L568.3 453Z" fill="#273f3a" stroke="#273f3a"></path><path d="M643 460L654 540L734.7 418Z" fill="#385f61" stroke="#385f61"></path><path d="M417.7 540L445.7 468L333 416Z" fill="#273f3a" stroke="#273f3a"></path><path d="M188.3 95L296 143L315 100Z" fill="#4a7985" stroke="#4a7985"></path><path d="M107.7 415L214.3 443L229.3 368Z" fill="#345959" stroke="#345959"></path><path d="M295 540L417.7 540L333 416Z" fill="#385f61" stroke="#385f61"></path><path d="M197.3 0L188.3 95L315 100Z" fill="#50808e" stroke="#50808e"></path><path d="M851.3 323L740.7 287L728.7 366Z" fill="#315251" stroke="#315251"></path><path d="M740.7 287L830.3 282L742.7 172Z" fill="#273f3a" stroke="#273f3a"></path><path d="M877.3 118L755.7 0L745.7 98Z" fill="#315251" stroke="#315251"></path><path d="M745.7 98L755.7 0L661 57Z" fill="#345959" stroke="#345959"></path><path d="M830.3 282L839.3 183L742.7 172Z" fill="#45737b" stroke="#45737b"></path><path d="M85.7 343L229.3 368L226.3 305Z" fill="#273f3a" stroke="#273f3a"></path><path d="M229.3 368L214.3 443L333 416Z" fill="#3c666a" stroke="#3c666a"></path><path d="M539.3 540L654 540L568.3 453Z" fill="#45737b" stroke="#45737b"></path><path d="M734.7 418L851.3 323L728.7 366Z" fill="#2a4541" stroke="#2a4541"></path><path d="M214.3 443L295 540L333 416Z" fill="#2d4c49" stroke="#2d4c49"></path><path d="M870.3 433L851.3 323L734.7 418Z" fill="#2a4541" stroke="#2a4541"></path><path d="M830.3 282L960 237L839.3 183Z" fill="#2d4c49" stroke="#2d4c49"></path><path d="M188.3 95L118.7 148L178.3 180Z" fill="#315251" stroke="#315251"></path><path d="M321 0L197.3 0L315 100Z" fill="#406c72" stroke="#406c72"></path><path d="M197.3 0L142.7 86L188.3 95Z" fill="#345959" stroke="#345959"></path><path d="M178.3 180L92.7 270L226.3 305Z" fill="#406c72" stroke="#406c72"></path><path d="M142.7 86L118.7 148L188.3 95Z" fill="#4a7985" stroke="#4a7985"></path><path d="M960 170L877.3 118L839.3 183Z" fill="#50808e" stroke="#50808e"></path><path d="M839.3 183L877.3 118L745.7 98Z" fill="#385f61" stroke="#385f61"></path><path d="M118.7 148L92.7 270L178.3 180Z" fill="#273f3a" stroke="#273f3a"></path><path d="M214.3 443L224.3 540L295 540Z" fill="#4a7985" stroke="#4a7985"></path><path d="M123.7 540L224.3 540L214.3 443Z" fill="#50808e" stroke="#50808e"></path><path d="M92.7 270L85.7 343L226.3 305Z" fill="#315251" stroke="#315251"></path><path d="M654 540L780.7 540L734.7 418Z" fill="#385f61" stroke="#385f61"></path><path d="M85.7 343L107.7 415L229.3 368Z" fill="#45737b" stroke="#45737b"></path><path d="M780.7 540L870.3 433L734.7 418Z" fill="#345959" stroke="#345959"></path><path d="M851.3 323L960 237L830.3 282Z" fill="#315251" stroke="#315251"></path><path d="M780.7 540L821.3 540L870.3 433Z" fill="#50808e" stroke="#50808e"></path><path d="M142.7 86L0 60L118.7 148Z" fill="#3c666a" stroke="#3c666a"></path><path d="M0 213L0 239L92.7 270Z" fill="#45737b" stroke="#45737b"></path><path d="M92.7 270L0 349L85.7 343Z" fill="#2d4c49" stroke="#2d4c49"></path><path d="M197.3 0L95.7 0L142.7 86Z" fill="#315251" stroke="#315251"></path><path d="M877.3 118L891.3 0L755.7 0Z" fill="#406c72" stroke="#406c72"></path><path d="M960 76L891.3 0L877.3 118Z" fill="#273f3a" stroke="#273f3a"></path><path d="M960 327L960 237L851.3 323Z" fill="#2d4c49" stroke="#2d4c49"></path><path d="M960 237L960 170L839.3 183Z" fill="#3c666a" stroke="#3c666a"></path><path d="M870.3 433L960 327L851.3 323Z" fill="#45737b" stroke="#45737b"></path><path d="M960 427L960 327L870.3 433Z" fill="#345959" stroke="#345959"></path><path d="M107.7 415L123.7 540L214.3 443Z" fill="#406c72" stroke="#406c72"></path><path d="M0 540L123.7 540L107.7 415Z" fill="#50808e" stroke="#50808e"></path><path d="M960 170L960 76L877.3 118Z" fill="#3c666a" stroke="#3c666a"></path><path d="M0 213L92.7 270L118.7 148Z" fill="#4a7985" stroke="#4a7985"></path><path d="M85.7 343L0 415L107.7 415Z" fill="#3c666a" stroke="#3c666a"></path><path d="M0 60L0 213L118.7 148Z" fill="#385f61" stroke="#385f61"></path><path d="M0 239L0 349L92.7 270Z" fill="#4a7985" stroke="#4a7985"></path><path d="M960 540L960 427L870.3 433Z" fill="#50808e" stroke="#50808e"></path><path d="M95.7 0L0 60L142.7 86Z" fill="#315251" stroke="#315251"></path><path d="M960 76L960 0L891.3 0Z" fill="#3c666a" stroke="#3c666a"></path><path d="M0 349L0 415L85.7 343Z" fill="#3c666a" stroke="#3c666a"></path><path d="M95.7 0L0 0L0 60Z" fill="#4a7985" stroke="#4a7985"></path><path d="M821.3 540L960 540L870.3 433Z" fill="#315251" stroke="#315251"></path><path d="M0 415L0 540L107.7 415Z" fill="#2d4c49" stroke="#2d4c49"></path></g></svg>